<svg width="46" height="48" viewBox="0 0 46 48" fill="none" xmlns="http://www.w3.org/2000/svg">
<rect width="46" height="48" fill="#B146C2"/>
<path d="M23 13V35" stroke="white" stroke-width="2" stroke-linecap="round" stroke-linejoin="round"/>
<path d="M28 17H20.5C19.5717 17 18.6815 17.3687 18.0251 18.0251C17.3687 18.6815 17 19.5717 17 20.5C17 21.4283 17.3687 22.3185 18.0251 22.9749C18.6815 23.6313 19.5717 24 20.5 24H25.5C26.4283 24 27.3185 24.3687 27.9749 25.0251C28.6313 25.6815 29 26.5717 29 27.5C29 28.4283 28.6313 29.3185 27.9749 29.9749C27.3185 30.6313 26.4283 31 25.5 31H17" stroke="white" stroke-width="2" stroke-linecap="round" stroke-linejoin="round"/>
</svg>
