<svg width="283" height="242" viewBox="0 0 283 242" fill="none" xmlns="http://www.w3.org/2000/svg">
<path d="M126.683 100.752C135.6 108.062 129.156 133.561 115.408 123.685C111.688 121.018 109.726 110.718 114.88 102.765C115.485 101.812 116.283 100.997 117.223 100.372C118.162 99.7477 119.222 99.3269 120.334 99.1372C121.447 98.9476 122.586 98.9933 123.68 99.2715C124.773 99.5497 125.796 100.054 126.683 100.752ZM122 120.989C128.877 118.925 127.046 100.244 118.189 105.507C113.834 108.09 113.861 123.432 121.996 120.989H122Z" fill="#D8E9FF"/>
<path d="M117.175 110.925C117.925 104.285 125.721 104.428 124.191 115.152C123.405 120.671 115.929 121.967 117.175 110.925Z" fill="#BDCEE0"/>
<path d="M161.327 99.6886C162.548 101.686 163.088 109.804 162.731 112.76C157.325 113.636 159.251 113.046 158.573 114.496C159.333 115.405 158.658 115.254 162.591 114.981C162.419 118.618 161.864 122.227 160.935 125.748C160.35 127.598 159.478 129.345 158.352 130.925C154.944 128.246 155.661 128.571 154.369 128.712C154.143 129.661 153.524 130.06 157.111 132.678C154.211 136.684 150.603 140.125 146.465 142.832L143.797 139.572C142.301 139.572 142.612 139.339 142.293 140.55C142.59 141.852 143.627 142.639 144.356 143.636C142.708 145.078 133.788 146.304 131.38 145.478C130.871 141.495 131.248 142.272 129.742 141.682C128.778 142.841 129.533 144.14 129.238 145.327C126.719 145.342 120.334 142.85 115.44 139.2C117.305 137.159 118.627 136.279 117.03 135.159C115.385 135.341 114.831 136.857 113.869 137.826C110.264 134.702 107.584 130.65 106.119 126.109C108.8 124.26 108.354 124.924 108.354 123.064C105.061 121.405 105.972 130.143 103.781 114.47C106.752 114.016 106.232 114.451 106.344 112.702C105.526 112.004 104.692 112.48 103.793 112.357C103.93 108.502 104.499 104.675 105.488 100.947L107.962 101.748C109.191 101.443 108.9 101.779 109.234 100.118C108.26 99.6446 107.255 99.2401 106.224 98.9077C106.992 95.2624 111.677 89.4789 114.967 86.5241C115.726 87.3492 116.531 88.13 117.379 88.8624C117.871 89.1899 118.31 89.4863 118.485 88.9988C118.66 88.5112 118.691 87.8548 116.247 85.6054C120.756 81.6268 126.517 79.3553 132.528 79.1862C132.765 84.2584 132.555 84.5429 133.533 84.9534C135.072 84.3488 134.797 85.4454 134.228 79.0469C139.816 79.1951 145.121 80.1167 149.856 83.3753C146.549 87.6829 146.611 87.1524 147.201 88.615C148.554 88.738 147.758 89.3159 151.647 84.7711C155.711 87.8696 157.974 91.3875 160.466 96.682C160.875 97.5489 161.348 97.4081 157.088 99.4663C155.987 99.9983 155.704 100.754 156.514 101.382C157.325 102.011 159.788 100.307 161.327 99.6886ZM144.778 120.978C146.568 114.566 146.727 104.647 142.338 98.4128C137.062 90.9207 132.94 93.3894 123.381 95.9811C120.293 96.8183 115.503 98.4898 113.709 101.139C110.13 106.421 109.016 111.808 111.009 120.028C112.445 125.955 117.416 127.096 121.601 128.894C125.678 130.644 132.583 133.378 136.692 131.709C138.796 130.854 143.074 127.074 144.778 120.978Z" fill="#D8E9FF"/>
<path d="M137.014 95.5717C138.584 96.3183 139.872 97.5488 140.691 99.0821L130.676 102.046C129.762 101.072 128.888 100.149 128.02 99.2214C125.607 96.6475 120.359 98.5279 131.266 95.6577C133.578 95.0486 134.537 94.3833 137.014 95.5717Z" fill="#BDCEE0"/>
<path d="M141.527 100.484C142.935 102.705 143.751 105.25 143.898 107.875C140.206 108.28 136.511 108.665 132.819 109.081C132.553 109.113 132.616 109.081 131.438 103.563L141.527 100.484Z" fill="#BDCEE0"/>
<path d="M138.982 127.508C135.697 131.657 131.593 131.685 123.325 127.726C125.338 127.192 127.195 126.184 128.739 124.786L138.982 127.508Z" fill="#BDCEE0"/>
<path d="M143.323 119.938C142.692 122.182 141.648 124.29 140.244 126.151C136.719 125.283 133.228 124.422 129.609 123.533C130.604 121.812 131.344 119.956 131.805 118.022C135.671 118.372 139.383 119.37 143.323 119.938Z" fill="#BDCEE0"/>
<path d="M144.129 109.435C144.187 112.41 143.993 115.384 143.548 118.326C139.74 117.744 135.966 117.163 132.041 116.557C132.258 114.602 132.485 112.585 132.697 110.604C136.551 110.203 140.302 109.822 144.129 109.435Z" fill="#BDCEE0"/>
<path d="M162.176 92.0731C166.871 100.647 167.791 114.084 164.201 126.416C162.448 132.467 158.953 137.868 154.151 141.945C150.06 145.548 145.109 148.035 139.777 149.166C123.354 152.226 105.206 140.801 101.374 121.308C100.018 115.079 100.063 108.626 101.506 102.416C103.95 93.1919 108.517 86.3222 116.293 81.2796C118.78 79.7299 121.418 78.4389 124.168 77.4268C129.703 75.4969 135.669 75.1586 141.386 76.4503C154.49 79.1028 161.071 90.0564 162.176 92.0731ZM164.22 113.195C164.472 107.557 163.693 101.919 161.923 96.5601C158.682 88.5775 155.796 86.0273 150.153 82.0872C145.831 79.3199 140.808 77.845 135.676 77.8358C128.826 77.4462 122.058 79.4824 116.56 83.5868C113.028 86.0272 110.021 89.1512 107.717 92.774C105.68 96.1353 104.252 99.8299 103.501 103.688C102.05 109.387 101.949 115.345 103.204 121.09C107.165 143.879 132.044 153.526 148.52 143.437C154.571 139.424 159.279 133.688 162.036 126.97C163.384 122.498 164.118 117.864 164.22 113.195Z" fill="#BDCEE0"/>
<path d="M71.365 78.09C84.0079 78.0367 82.6432 89.4037 79.6262 93.4372C75.7586 98.6073 76.71 100.74 76.4803 108.089C75.4237 141.933 79.1105 145.295 69.9721 143.139C66.9433 142.423 67.2456 139.005 67.3049 135.017C67.4753 124.607 68.6681 107.935 66.9166 97.7227C66.2409 93.7825 63.1113 93.0416 62.9024 87.5959C62.5882 79.2073 66.4899 78.8161 71.365 78.09Z" fill="#BDCEE0"/>
<path d="M235.427 214.382C235.427 216.341 235.279 224.31 234.039 227.266C231.201 228.332 228.253 229.077 225.25 229.489C226.046 225.168 225.66 220.825 225.731 216.458L235.427 214.382Z" fill="#BDCEE0"/>
<path d="M198.431 221.435C198.644 225.976 199.545 230.483 198.644 235.048C195.066 236.219 191.726 237.829 188.064 238.427C188.277 233.59 187.768 228.808 187.51 223.967L198.431 221.435Z" fill="#BDCEE0"/>
<path d="M108.427 222.722C103.722 228.9 103.904 229.159 102.842 229.873C100.142 231.689 97.3119 233.305 94.3749 234.706C94.9098 233.372 101.531 222.258 101.554 222.214C103.838 222.381 106.034 222.543 108.427 222.722Z" fill="#BDCEE0"/>
<path d="M99.3813 222.121C99.3472 222.187 91.6758 235.633 90.6786 236.029C88.7789 235.986 63.5968 235.349 61.6838 234.461C60.8036 234.054 60.3502 234.842 60.3502 220.151C80.9949 221.415 91.4002 222.121 99.3813 222.121Z" fill="#D8E9FF"/>
<path d="M223.838 216.817C223.838 227.475 223.963 227.692 222.826 229.72C215.543 229.813 208.289 229.902 200.968 229.995C200.785 227.098 200.608 224.182 200.417 221.095C202.316 220.614 218.658 217.806 223.838 216.817Z" fill="#D8E9FF"/>
<path d="M185.64 224.491C185.64 241.617 188.971 238.42 176.251 239.07C171.383 239.316 176.604 239.482 165.249 239.054C156.227 238.715 159.686 241.425 148.144 224.445C155.478 224.445 149.602 224.414 166.899 224.941C180.898 225.368 173.153 224.491 185.64 224.491Z" fill="#D8E9FF"/>
<path d="M255.416 48.4932C255.514 50.5959 256.679 182.573 255.078 196.86C253.199 213.646 248.684 208.728 193.06 220.518C193.356 219.734 197.561 217.505 199.057 211.067C201.872 198.963 199.185 30.9677 196.81 20.4838C196.134 17.4979 196.687 13.4526 193.057 7.68089C190.538 3.66664 186.858 2.84275 190.155 3.39251C208.171 6.39615 242.345 16.0295 248.855 20.1C253.278 22.8695 254.425 27.1046 255.416 48.4932Z" fill="#D8E9FF"/>
<path d="M194.859 21.2069C197.512 39.1918 198.416 196.506 198.207 200.279C197.642 210.564 196.766 214.03 191.507 218.159C184.913 223.335 176.797 222.414 159.457 222.185C147.392 222.023 96.3953 220.89 55.7193 217.511C31.9672 215.537 39.5378 209.657 39.0607 103.716C38.7228 28.2456 33.7143 15.8635 48.5829 12.7132C56.1105 11.1187 62.7342 10.7171 72.0312 9.99105C81.0451 9.28718 164.239 2.51379 169.553 2.09888C184.485 0.940094 192.03 2.01145 194.859 21.2069ZM183.965 174.609C183.817 159.449 182.821 41.167 178.186 25.8776C176.089 18.959 169.999 18.9501 162.788 19.1028C141.085 19.5636 69.0216 22.6221 56.5669 24.5129C54.5161 24.8241 51.8888 25.6065 50.936 27.6929C49.0689 31.796 49.6024 33.4838 49.3534 45.371C48.5532 83.1737 49.6839 38.7546 51.2531 165.878C51.5213 187.504 50.5226 196.86 54.1619 200.935C56.481 203.531 60.5886 203.751 68.4155 204.376C71.2858 204.604 75.3312 205.139 79.2047 205.458C101.176 207.261 146.619 208.789 159.088 208.847C189.634 208.988 184.226 202.533 183.965 174.609Z" fill="#D8E9FF"/>
<path d="M179.272 63.3985C182.206 115.942 182.46 196.423 182.347 197.757C182.051 201.332 180.655 202.371 178.555 204.128C175.78 206.441 169.239 206.581 166.431 206.727C151.709 207.499 94.149 205.401 66.8184 202.442C53.8184 201.034 54.051 201.98 53.442 182.406C53.2212 175.294 53.6272 115.407 52.4417 91.0937C51.2267 66.1517 50.7421 65.4775 51.3911 39.3989C51.7201 26.1929 51.1733 26.8183 70.2977 25.4224C124.15 21.4882 148.027 21.9327 161.846 21.1636C179.117 20.1945 177.044 23.4901 179.272 63.3985ZM158.321 140.527C166.078 132.042 168.563 117.672 167.913 107.727C165.635 72.9043 124.829 62.828 106.18 89.0028C104.088 92.096 102.396 95.4407 101.142 98.9577C97.6965 107.945 98.4434 124.675 104.391 133.549C106.196 136.563 108.454 139.282 111.086 141.609C113.096 143.101 113.605 143.944 114.631 144.506C115.17 144.802 125.284 151.488 134.849 150.878C138.954 150.782 143.016 150.022 146.878 148.628C151.24 146.799 155.146 144.033 158.321 140.527ZM80.6215 95.5287C84.2905 90.8077 83.308 85.8717 83.3021 84.1187C83.2666 73.3296 59.5337 72.7206 60.8303 86.5045C62.0158 99.1711 65.2758 89.1955 65.7752 110.972C66.4079 138.742 60.9815 144.623 72.4893 145.921C80.254 146.795 78.1854 137.857 78.0772 131.346C77.8342 116.603 78.7277 107.761 78.6551 103.879C78.5766 99.6704 79.5753 96.8757 80.6215 95.5287Z" fill="#D8E9FF"/>
<path d="M254.912 228.706C250.708 228.145 245.28 228.955 235.427 228.955C237.121 225.111 236.241 228.246 237.428 214.167C259.597 211.025 257.308 205.375 258.042 169.388C258.042 169.349 257.984 56.1322 256.723 37.771C256.25 30.8331 255.96 27.0322 254.047 22.8357C252.058 18.4614 247.279 16.5498 240.655 14.3419C229.284 10.5485 193.308 -1.02751 174.836 0.0734859C174.808 0.0734859 122.676 4.03291 89.6475 6.54311C74.3433 7.70189 53.7682 9.80311 50.3793 10.3855C44.3365 11.4642 38.5085 13.1594 37.1422 22.9483C35.1684 37.0538 37.6312 67.7897 36.3317 133.842C36.3317 133.885 35.9242 192.623 36.5569 202.97C36.6738 205.153 37.1261 207.304 37.8979 209.349C40.5134 216.138 43.9378 218.833 53.4126 219.601C54.681 219.706 56.6548 219.968 58.5204 220.104C58.5204 226.306 58.4819 223.742 58.6686 229.929C14.5978 229.929 1.55484 228.823 0.736877 230.576C1.24959 231.421 -1.311 231.787 33.9593 231.301C47.4364 231.116 51.7411 232.078 58.719 231.577C58.719 235.172 58.9546 236.495 65.0093 237.08C68.5079 237.418 85.088 238.003 85.131 238.003C94.9702 237.771 87.9257 240.311 98.8793 234.583C105.46 231.14 96.2802 231.74 150.313 231.74C158.816 243.594 153.138 241.075 185.456 241.188C187.03 241.188 194.162 238.992 197.878 237.615C199.824 236.89 200.305 236.533 200.732 234.068C201.166 231.557 200.171 231.972 203.451 231.972C234.421 231.992 227.946 230.587 231.458 230.538C284.803 229.782 281.116 232.577 282.284 230.037C280.737 228.563 263.01 229.793 254.912 228.706ZM55.7198 217.511C31.9677 215.537 39.5383 209.658 39.0612 103.716C38.7233 28.4044 33.6911 15.8697 48.5833 12.7134C56.111 11.1205 62.7347 10.7174 72.0317 9.99131C81.0456 9.28596 164.239 2.51404 169.553 2.09913C184.485 0.935906 192.028 2.01319 194.86 21.2146C197.512 39.1995 198.416 196.514 198.207 200.287C197.644 210.573 196.767 214.039 191.508 218.166C184.915 223.344 176.798 222.423 159.458 222.192C147.393 222.028 96.3957 220.89 55.7198 217.511ZM90.6789 236.034C88.7777 235.99 63.5957 235.355 61.6841 234.466C60.8039 234.06 60.3505 234.847 60.3505 220.156C80.9982 221.42 91.405 222.126 99.3861 222.126C99.3475 222.188 91.6747 235.634 90.6744 236.03L90.6789 236.034ZM102.842 229.879C100.142 231.695 97.3115 233.31 94.3745 234.711C94.911 233.377 101.53 222.263 101.554 222.219C103.837 222.385 106.034 222.548 108.427 222.727C103.722 228.9 103.904 229.16 102.842 229.881V229.879ZM106.271 229.902C105.085 229.871 104.75 230.763 110.54 222.723C151.949 226.039 143.424 221.075 149.079 229.917C102.794 229.913 120.487 230.293 106.271 229.898V229.902ZM176.251 239.075C171.383 239.321 176.602 239.487 165.249 239.058C156.227 238.718 159.686 241.429 148.144 224.449C155.477 224.449 149.603 224.418 166.899 224.946C180.897 225.372 173.153 224.501 185.64 224.501C185.64 241.617 188.971 238.426 176.251 239.069V239.075ZM198.644 235.049C195.064 236.219 191.726 237.83 188.064 238.427C188.277 233.59 187.768 228.809 187.51 223.968L198.431 221.435C198.644 225.972 199.544 230.474 198.644 235.044V235.049ZM193.059 220.527C193.356 219.744 197.558 217.513 199.056 211.076C201.864 198.971 199.193 30.9768 196.81 20.493C196.136 17.5071 196.687 13.4617 193.056 7.69004C190.537 3.67579 186.858 2.85042 190.155 3.40165C207.388 6.26897 242.167 15.926 248.854 20.1092C253.279 22.8742 254.418 27.1137 255.416 48.5023C255.514 50.605 256.677 182.582 255.078 196.869C253.197 213.647 248.682 208.73 193.059 220.519V220.527ZM222.826 229.726C222.826 229.726 208.289 229.911 200.968 230.002C200.785 227.105 200.608 224.188 200.417 221.102C202.318 220.62 218.656 217.812 223.838 216.824C223.838 227.474 223.963 227.69 222.826 229.718V229.726ZM234.039 227.272C231.201 228.336 228.253 229.081 225.25 229.495C226.046 225.174 225.661 220.831 225.732 216.464L235.427 214.389C235.427 216.339 235.284 224.305 234.039 227.265V227.272Z" fill="#000001"/>
<path d="M179.52 206.049C186.642 201.857 184.129 191.846 183.966 174.611C183.825 159.45 182.825 41.1682 178.186 25.8788C176.091 18.9602 169.998 18.9528 162.789 19.104C141.086 19.5692 69.0223 22.6174 56.5676 24.5141C54.5167 24.8238 51.8909 25.6077 50.9367 27.6941C49.071 31.7972 49.603 33.485 49.3541 45.3722C48.5554 83.1749 49.6875 38.7558 51.2538 165.88C51.522 187.514 50.5247 196.86 54.1626 200.937C56.4816 203.531 60.5892 203.752 68.4162 204.377C71.285 204.606 75.3304 205.14 79.2053 205.459C101.176 207.262 146.619 208.79 159.089 208.848C169.573 208.898 175.832 208.217 179.52 206.049ZM66.8173 202.433C53.8173 201.025 54.05 201.971 53.4409 182.398C53.2201 175.285 53.6232 115.399 52.4407 91.0848C51.2226 66.1428 50.7425 65.4686 51.3901 39.3901C51.7191 26.1856 51.1723 26.8094 70.2966 25.4135C123.818 21.503 148.31 21.9046 161.845 21.1548C179.116 20.1886 177.041 23.4887 179.271 63.397C182.204 115.941 182.46 196.421 182.346 197.755C182.05 201.331 180.655 202.371 178.554 204.127C175.78 206.443 169.238 206.578 166.43 206.726C151.709 207.489 94.1495 205.391 66.8173 202.433Z" fill="#000001"/>
<path d="M150.153 82.0848C145.831 79.3166 140.808 77.8416 135.676 77.8334C128.826 77.443 122.057 79.4793 116.56 83.5844C113.024 86.0207 110.016 89.1455 107.717 92.7716C105.666 96.1263 104.238 99.8234 103.501 103.685C102.041 109.383 101.939 115.344 103.204 121.088C107.164 143.877 132.044 153.523 148.52 143.435C154.571 139.422 159.279 133.685 162.036 126.968C163.384 122.497 164.119 117.864 164.223 113.196C164.475 107.557 163.696 101.92 161.926 96.5607C158.676 88.5766 155.796 86.0249 150.153 82.0848ZM162.731 112.758C157.325 113.634 159.251 113.047 158.573 114.495C159.333 115.403 158.659 115.251 162.591 114.98C162.419 118.617 161.864 122.226 160.935 125.747C160.349 127.597 159.478 129.344 158.352 130.924C154.944 128.243 155.661 128.569 154.369 128.71C154.144 129.66 153.524 130.06 157.112 132.677C154.211 136.682 150.603 140.123 146.465 142.83L143.797 139.57C142.301 139.57 142.612 139.338 142.293 140.548C142.59 141.851 143.627 142.639 144.356 143.635C142.708 145.078 133.788 146.302 131.38 145.477C130.872 141.495 131.248 142.27 129.742 141.681C128.778 142.841 129.533 144.139 129.239 145.326C126.719 145.342 120.334 142.848 115.44 139.199C117.305 137.158 118.627 136.278 117.03 135.158C115.385 135.34 114.831 136.856 113.869 137.825C110.264 134.701 107.584 130.648 106.119 126.108C108.8 124.259 108.354 124.923 108.354 123.063C105.061 121.403 105.973 130.142 103.781 114.468C106.752 114.015 106.232 114.449 106.344 112.701C105.527 112.001 104.692 112.478 103.793 112.355C103.93 108.501 104.498 104.673 105.488 100.945L107.963 101.747C109.191 101.44 108.901 101.78 109.234 100.117C108.26 99.6435 107.255 99.239 106.224 98.9064C106.992 95.2611 111.678 89.4776 114.967 86.5228C115.727 87.3472 116.532 88.1279 117.38 88.8611C117.873 89.1871 118.31 89.4864 118.485 88.9974C118.66 88.5084 118.691 87.8535 116.247 85.6041C120.756 81.6255 126.517 79.354 132.528 79.1848C132.765 84.2571 132.556 84.5401 133.533 84.9521C135.073 84.346 134.797 85.444 134.228 79.0456C139.816 79.1937 145.122 80.1154 149.857 83.3739C146.549 87.6816 146.611 87.1511 147.201 88.6137C148.554 88.7366 147.76 89.3146 151.647 84.7698C155.711 87.8683 157.965 91.3906 160.466 96.6807C160.874 97.549 161.347 97.4053 157.088 99.465C155.987 99.997 155.699 100.753 156.514 101.381C157.329 102.009 159.774 100.298 161.32 99.6814C162.542 101.685 163.088 109.802 162.731 112.758Z" fill="#000001"/>
<path d="M123.381 95.9811C120.293 96.8198 115.503 98.4913 113.709 101.139C110.132 106.422 109.016 111.808 111.009 120.028C112.443 125.955 117.415 127.098 121.601 128.894C125.676 130.647 132.584 133.381 136.692 131.709C138.798 130.856 143.074 127.074 144.778 120.978C146.57 114.566 146.728 104.645 142.338 98.4127C137.064 90.9206 132.942 93.3908 123.381 95.9811ZM143.901 107.876C140.206 108.285 136.513 108.687 132.821 109.082C132.558 109.113 132.618 109.082 131.44 103.564C134.763 102.547 138.15 101.516 141.527 100.484C142.936 102.705 143.753 105.25 143.901 107.876ZM131.266 95.6595C133.577 95.0505 134.543 94.3674 137.014 95.5736C138.586 96.3158 139.876 97.5474 140.69 99.084C137.331 100.072 133.993 101.06 130.676 102.048C129.762 101.074 128.889 100.151 128.019 99.2233C125.606 96.6479 120.359 98.5372 131.266 95.6595ZM115.41 123.685C111.692 121.018 109.619 110.645 114.883 102.765C115.484 101.809 116.281 100.991 117.22 100.364C118.159 99.7362 119.22 99.3138 120.333 99.1239C121.446 98.9341 122.587 98.981 123.681 99.2616C124.775 99.5422 125.798 100.05 126.682 100.753C135.484 108.196 129.151 133.563 115.403 123.685H115.41ZM123.338 127.726C125.351 127.192 127.208 126.184 128.752 124.786L138.995 127.508C135.702 131.654 131.599 131.686 123.33 127.726H123.338ZM140.244 126.154C136.719 125.286 133.227 124.425 129.609 123.535C130.604 121.815 131.344 119.958 131.805 118.025C135.671 118.374 139.383 119.37 143.323 119.941C142.693 122.185 141.648 124.293 140.244 126.154ZM143.548 118.324C139.74 117.742 135.966 117.162 132.041 116.555C132.258 114.6 132.485 112.583 132.697 110.602C136.55 110.207 140.302 109.826 144.129 109.439C144.186 112.411 143.992 115.382 143.548 118.321V118.324Z" fill="#000001"/>
<path d="M167.913 107.73C165.64 72.9068 124.827 62.8305 106.18 89.0053C104.088 92.0982 102.395 95.4429 101.142 98.9602C97.6938 107.947 98.4422 124.679 104.392 133.552C106.196 136.566 108.455 139.284 111.087 141.611C113.094 143.104 113.606 143.95 114.631 144.508C115.169 144.805 125.285 151.494 134.849 150.88C138.952 150.767 143.012 150.008 146.878 148.631C151.225 146.776 155.127 144.017 158.324 140.537C166.059 132.027 168.565 117.674 167.913 107.73ZM164.208 126.415C162.53 132.038 159.381 137.111 155.087 141.111C150.793 145.11 145.51 147.891 139.782 149.166C123.037 152.286 104.811 140.223 101.379 121.308C99.982 115.083 100.027 108.621 101.511 102.416C103.895 93.4286 108.476 86.2981 116.298 81.2791C118.781 79.7228 121.42 78.4314 124.172 77.4264C129.708 75.4964 135.673 75.1581 141.391 76.4499C154.489 79.1171 161.071 90.0663 162.177 92.0831C166.868 100.648 167.849 114.101 164.201 126.415H164.208Z" fill="#000001"/>
<path d="M118.185 105.506C113.833 108.088 113.859 123.436 121.996 120.988C128.873 118.923 127.039 100.242 118.185 105.506ZM124.192 115.151C123.404 120.669 115.928 121.967 117.176 110.923C117.924 104.283 125.72 104.427 124.192 115.151Z" fill="#000001"/>
<path d="M60.8303 86.501C62.0158 99.1676 65.2758 89.192 65.7751 110.969C66.4079 138.738 60.9815 144.621 72.4893 145.918C80.254 146.793 78.1854 137.853 78.0772 131.342C77.8372 116.6 78.7292 107.758 78.6551 103.875C78.5781 99.6714 79.5753 96.8752 80.6215 95.5297C84.2905 90.8086 83.3051 85.8727 83.3021 84.1197C83.2547 73.3232 59.5308 72.7142 60.8303 86.501ZM79.6257 93.4389C75.7582 98.6089 76.708 100.74 76.4798 108.091C75.4218 141.934 79.1086 145.301 69.9717 143.141C66.9428 142.426 67.2451 139.005 67.3044 135.019C67.4748 124.609 68.6691 107.936 66.9161 97.7243C66.2419 93.7841 63.1108 93.0432 62.9019 87.5975C62.5803 79.209 66.482 78.8178 71.3572 78.0917C84.006 78.0383 82.6427 89.4054 79.6257 93.4389Z" fill="#000001"/>
</svg>
