<svg width="8" height="14" viewBox="0 0 8 14" fill="none" xmlns="http://www.w3.org/2000/svg">
<path d="M0.305288 7.69471C0.117817 7.50718 0.0125017 7.25288 0.0125017 6.98771C0.0125017 6.72255 0.117817 6.46824 0.305288 6.28071L6.30529 0.280712C6.49389 0.0985538 6.74649 -0.00224062 7.00869 3.78026e-05C7.27089 0.00231622 7.5217 0.107485 7.70711 0.292893C7.89251 0.478301 7.99768 0.729114 7.99996 0.991311C8.00224 1.25351 7.90145 1.50611 7.71929 1.69471L2.42629 6.98771L7.71929 12.2807C7.90145 12.4693 8.00224 12.7219 7.99996 12.9841C7.99768 13.2463 7.89251 13.4971 7.70711 13.6825C7.5217 13.8679 7.27089 13.9731 7.00869 13.9754C6.74649 13.9777 6.49389 13.8769 6.30529 13.6947L0.305288 7.69471Z" fill="white"/>
</svg>
