<?xml version="1.0" encoding="UTF-8"?>
<!DOCTYPE svg PUBLIC "-//W3C//DTD SVG 1.1//EN" "http://www.w3.org/Graphics/SVG/1.1/DTD/svg11.dtd">
<!-- Creator: CorelDRAW -->
<svg xmlns="http://www.w3.org/2000/svg" xml:space="preserve" width="512px" height="512px" version="1.1" shape-rendering="geometricPrecision" text-rendering="geometricPrecision" image-rendering="optimizeQuality" fill-rule="evenodd" clip-rule="evenodd"
viewBox="0 0 512 512"
 xmlns:xlink="http://www.w3.org/1999/xlink"
 xmlns:xodm="http://www.corel.com/coreldraw/odm/2003">
 <g id="Layer_x0020_1">
  <metadata id="CorelCorpID_0Corel-Layer"/>
  <path fill="black" fill-rule="nonzero" d="M256 0c70.68,0 134.69,28.66 181.01,74.99 46.33,46.32 74.99,110.33 74.99,181.01 0,70.69 -28.66,134.69 -74.99,181.01 -46.32,46.33 -110.32,74.99 -181.01,74.99 -70.68,0 -134.69,-28.66 -181.01,-74.99 -46.33,-46.32 -74.99,-110.33 -74.99,-181.01 0,-70.68 28.66,-134.69 74.99,-181.01 46.32,-46.33 110.33,-74.99 181.01,-74.99zm-87.42 162.43l58.28 0 29.4 63.43 28.71 -63.43 58.46 0 -44.57 80.77 -15.81 28.23 0 15.42 53.84 0 0 28.48 -53.84 0 0 34.24 -53.05 0 0 -34.24 -54.63 0 0 -28.48 54.63 0 0 -15.42 -15.55 -28.23 -45.87 -80.77zm244.5 -63.52c-40.19,-40.19 -95.73,-65.05 -157.08,-65.05 -61.35,0 -116.89,24.86 -157.09,65.05 -40.19,40.2 -65.05,95.74 -65.05,157.09 0,61.35 24.86,116.89 65.05,157.09 40.2,40.19 95.74,65.05 157.09,65.05 61.35,0 116.89,-24.86 157.08,-65.05 40.2,-40.19 65.06,-95.74 65.06,-157.09 0,-61.35 -24.86,-116.89 -65.06,-157.09z"/>
 </g>
</svg>
