<svg width="124" height="49" viewBox="0 0 124 49" fill="none" xmlns="http://www.w3.org/2000/svg">
<path d="M65.75 9V7.5H62.75V5.25H61.25V7.5H59.75C59.3523 7.5004 58.971 7.65856 58.6898 7.93978C58.4086 8.221 58.2504 8.6023 58.25 9V11.25C58.2504 11.6477 58.4086 12.029 58.6898 12.3102C58.971 12.5914 59.3523 12.7496 59.75 12.75H64.25V15H58.25V16.5H61.25V18.75H62.75V16.5H64.25C64.6477 16.4996 65.029 16.3414 65.3102 16.0602C65.5914 15.779 65.7496 15.3977 65.75 15V12.75C65.7496 12.3523 65.5914 11.971 65.3102 11.6898C65.029 11.4086 64.6477 11.2504 64.25 11.25H59.75V9H65.75Z" fill="white"/>
<path d="M62 3C63.78 3 65.5201 3.52784 67.0001 4.51677C68.4802 5.50571 69.6337 6.91131 70.3149 8.55585C70.9961 10.2004 71.1743 12.01 70.8271 13.7558C70.4798 15.5016 69.6226 17.1053 68.364 18.364C67.1053 19.6226 65.5016 20.4798 63.7558 20.8271C62.01 21.1743 60.2004 20.9961 58.5559 20.3149C56.9113 19.6337 55.5057 18.4802 54.5168 17.0001C53.5278 15.5201 53 13.78 53 12C53.0069 9.61518 53.9574 7.33002 55.6437 5.64369C57.33 3.95736 59.6152 3.00693 62 3ZM62 1.5C59.9233 1.5 57.8932 2.11581 56.1665 3.26957C54.4398 4.42332 53.094 6.0632 52.2993 7.98182C51.5045 9.90045 51.2966 12.0116 51.7018 14.0484C52.1069 16.0852 53.1069 17.9562 54.5754 19.4246C56.0438 20.8931 57.9148 21.8931 59.9516 22.2982C61.9884 22.7034 64.0996 22.4955 66.0182 21.7007C67.9368 20.906 69.5767 19.5602 70.7304 17.8335C71.8842 16.1068 72.5 14.0767 72.5 12C72.4919 9.21772 71.383 6.55172 69.4157 4.58434C67.4483 2.61696 64.7823 1.50811 62 1.5Z" fill="white"/>
<path d="M37.2842 45.2393C34.543 45.2393 32.834 43.2637 32.834 40.0713C32.834 36.8721 34.5361 34.8965 37.2773 34.8965C39.4512 34.8965 41.1328 36.3047 41.3789 38.3145H39.8545C39.5674 37.1045 38.5762 36.3252 37.2773 36.3252C35.5068 36.3252 34.3994 37.7676 34.3994 40.0713C34.3994 42.3682 35.5068 43.8105 37.2842 43.8105C38.5898 43.8105 39.5811 43.1064 39.8545 41.9922H41.3789C41.1055 43.9404 39.4854 45.2393 37.2842 45.2393ZM49.2 37.5557V45H47.785V43.8174H47.6687C47.3064 44.665 46.5477 45.1436 45.4197 45.1436C43.7723 45.1436 42.8562 44.1387 42.8562 42.3887V37.5557H44.326V42.0059C44.326 43.209 44.8113 43.7832 45.8914 43.7832C47.0809 43.7832 47.7303 43.0791 47.7303 41.9102V37.5557H49.2ZM51.0328 45V37.5557H52.4479V38.6973H52.5572C52.7691 37.9658 53.5963 37.4326 54.567 37.4326C54.7857 37.4326 55.066 37.4531 55.2232 37.4941V38.9434C55.1002 38.9023 54.6627 38.8545 54.4029 38.8545C53.2887 38.8545 52.5025 39.5586 52.5025 40.6045V45H51.0328ZM56.4477 45V37.5557H57.8627V38.6973H57.9721C58.184 37.9658 59.0111 37.4326 59.9818 37.4326C60.2006 37.4326 60.4809 37.4531 60.6381 37.4941V38.9434C60.515 38.9023 60.0775 38.8545 59.8178 38.8545C58.7035 38.8545 57.9174 39.5586 57.9174 40.6045V45H56.4477ZM64.6174 38.6631C63.5305 38.6631 62.7717 39.4287 62.6896 40.5908H66.4494C66.4152 39.4219 65.7043 38.6631 64.6174 38.6631ZM66.4426 42.9902H67.8576C67.5227 44.3232 66.3332 45.1436 64.6311 45.1436C62.4982 45.1436 61.1926 43.6807 61.1926 41.3018C61.1926 38.9229 62.5256 37.4121 64.6242 37.4121C66.6955 37.4121 67.9465 38.8271 67.9465 41.165V41.6777H62.6896V41.7598C62.7375 43.0654 63.4963 43.8926 64.6721 43.8926C65.5607 43.8926 66.1691 43.5713 66.4426 42.9902ZM69.4102 45V37.5557H70.8252V38.7383H70.9346C71.2969 37.9111 72.0352 37.4121 73.1562 37.4121C74.8174 37.4121 75.7334 38.4102 75.7334 40.1807V45H74.2637V40.5498C74.2637 39.3535 73.7441 38.7588 72.6572 38.7588C71.5703 38.7588 70.8799 39.4834 70.8799 40.6455V45H69.4102ZM83.8074 39.9893H82.3787C82.2078 39.2646 81.6063 38.7246 80.6219 38.7246C79.3914 38.7246 78.6395 39.668 78.6395 41.2539C78.6395 42.8672 79.3982 43.8311 80.6219 43.8311C81.5516 43.8311 82.1873 43.4072 82.3787 42.6074H83.8074C83.616 44.1045 82.4676 45.1436 80.6287 45.1436C78.4617 45.1436 77.1355 43.6807 77.1355 41.2539C77.1355 38.8682 78.4549 37.4121 80.6219 37.4121C82.4881 37.4121 83.616 38.499 83.8074 39.9893ZM85.9273 47.7002C85.8043 47.7002 85.4557 47.6865 85.3189 47.666V46.4014C85.4352 46.4219 85.6607 46.4287 85.7975 46.4287C86.4947 46.4287 86.8912 46.1416 87.1441 45.3896L87.2535 45.0273L84.5602 37.5557H86.1598L88.026 43.4688H88.1422L90.0016 37.5557H91.5602L88.7848 45.3076C88.149 47.1191 87.4449 47.7002 85.9273 47.7002Z" fill="white"/>
</svg>
