<svg width="24" height="24" viewBox="0 0 24 24" fill="none" xmlns="http://www.w3.org/2000/svg">
<path d="M3.76256 10.7626C4.09075 10.4344 4.53587 10.25 5 10.25C5.46413 10.25 5.90925 10.4344 6.23744 10.7626C6.56562 11.0908 6.75 11.5359 6.75 12C6.75 12.4641 6.56562 12.9092 6.23744 13.2374C5.90925 13.5656 5.46413 13.75 5 13.75C4.53587 13.75 4.09075 13.5656 3.76256 13.2374C3.43438 12.9092 3.25 12.4641 3.25 12C3.25 11.5359 3.43438 11.0908 3.76256 10.7626Z" fill="black"/>
<path d="M10.7626 10.7626C11.0908 10.4344 11.5359 10.25 12 10.25C12.4641 10.25 12.9092 10.4344 13.2374 10.7626C13.5656 11.0908 13.75 11.5359 13.75 12C13.75 12.4641 13.5656 12.9092 13.2374 13.2374C12.9092 13.5656 12.4641 13.75 12 13.75C11.5359 13.75 11.0908 13.5656 10.7626 13.2374C10.4344 12.9092 10.25 12.4641 10.25 12C10.25 11.5359 10.4344 11.0908 10.7626 10.7626Z" fill="black"/>
<path d="M17.7626 10.7626C18.0908 10.4344 18.5359 10.25 19 10.25C19.4641 10.25 19.9092 10.4344 20.2374 10.7626C20.5656 11.0908 20.75 11.5359 20.75 12C20.75 12.4641 20.5656 12.9092 20.2374 13.2374C19.9092 13.5656 19.4641 13.75 19 13.75C18.5359 13.75 18.0908 13.5656 17.7626 13.2374C17.4344 12.9092 17.25 12.4641 17.25 12C17.25 11.5359 17.4344 11.0908 17.7626 10.7626Z" fill="black"/>
</svg>
