<svg width="124" height="49" viewBox="0 0 124 49" fill="none" xmlns="http://www.w3.org/2000/svg">
<g clip-path="url(#clip0_6_275)">
<g clip-path="url(#clip1_6_275)">
<path d="M62 8V12L64 14" stroke="white" stroke-width="1.5" stroke-linecap="round" stroke-linejoin="round"/>
<path d="M53.05 11.0001C53.2741 8.80013 54.3003 6.75968 55.9328 5.26803C57.5653 3.77639 59.6897 2.93795 61.9009 2.9127C64.1121 2.88744 66.2552 3.67713 67.9213 5.1311C69.5874 6.58507 70.6599 8.60155 70.9342 10.7958C71.2085 12.99 70.6654 15.2085 69.4084 17.0278C68.1515 18.8472 66.2687 20.1401 64.1193 20.6599C61.97 21.1797 59.7045 20.89 57.755 19.8461C55.8056 18.8022 54.3088 17.0772 53.55 15.0001M53.05 20.0001V15.0001H58.05" stroke="white" stroke-width="1.5" stroke-linecap="round" stroke-linejoin="round"/>
</g>
</g>
<path d="M34.7686 45H33.2373V35.1357H39.3965V36.5303H34.7686V39.5586H39.0068V40.9121H34.7686V45ZM40.9422 45V37.5557H42.4051V45H40.9422ZM41.6736 36.25C41.1268 36.25 40.7234 35.8604 40.7234 35.3545C40.7234 34.8418 41.1268 34.4521 41.6736 34.4521C42.2205 34.4521 42.6238 34.8418 42.6238 35.3545C42.6238 35.8604 42.2205 36.25 41.6736 36.25ZM44.2652 45V37.5557H45.6803V38.7383H45.7896C46.152 37.9111 46.8902 37.4121 48.0113 37.4121C49.6725 37.4121 50.5885 38.4102 50.5885 40.1807V45H49.1187V40.5498C49.1187 39.3535 48.5992 38.7588 47.5123 38.7588C46.4254 38.7588 45.735 39.4834 45.735 40.6455V45H44.2652ZM54.7934 43.8857C55.9008 43.8857 56.7211 43.1816 56.7211 42.2588V41.6367L54.9027 41.7529C53.8773 41.8213 53.4125 42.1699 53.4125 42.8262C53.4125 43.4961 53.9936 43.8857 54.7934 43.8857ZM54.4174 45.123C52.9818 45.123 51.9359 44.2549 51.9359 42.8945C51.9359 41.5547 52.934 40.7822 54.7045 40.6729L56.7211 40.5566V39.9141C56.7211 39.1279 56.2016 38.6836 55.1967 38.6836C54.3764 38.6836 53.809 38.9844 53.6449 39.5107H52.223C52.3734 38.2324 53.5766 37.4121 55.265 37.4121C57.1313 37.4121 58.184 38.3418 58.184 39.9141V45H56.7689V43.9541H56.6527C56.2084 44.6992 55.3949 45.123 54.4174 45.123ZM59.9758 45V37.5557H61.3908V38.7383H61.5002C61.8625 37.9111 62.6008 37.4121 63.7219 37.4121C65.383 37.4121 66.299 38.4102 66.299 40.1807V45H64.8293V40.5498C64.8293 39.3535 64.3098 38.7588 63.2229 38.7588C62.1359 38.7588 61.4455 39.4834 61.4455 40.6455V45H59.9758ZM74.373 39.9893H72.9443C72.7734 39.2646 72.1719 38.7246 71.1875 38.7246C69.957 38.7246 69.2051 39.668 69.2051 41.2539C69.2051 42.8672 69.9639 43.8311 71.1875 43.8311C72.1172 43.8311 72.7529 43.4072 72.9443 42.6074H74.373C74.1816 44.1045 73.0332 45.1436 71.1943 45.1436C69.0273 45.1436 67.7012 43.6807 67.7012 41.2539C67.7012 38.8682 69.0205 37.4121 71.1875 37.4121C73.0537 37.4121 74.1816 38.499 74.373 39.9893ZM78.8104 38.6631C77.7234 38.6631 76.9646 39.4287 76.8826 40.5908H80.6424C80.6082 39.4219 79.8973 38.6631 78.8104 38.6631ZM80.6355 42.9902H82.0506C81.7156 44.3232 80.5262 45.1436 78.824 45.1436C76.6912 45.1436 75.3855 43.6807 75.3855 41.3018C75.3855 38.9229 76.7186 37.4121 78.8172 37.4121C80.8885 37.4121 82.1395 38.8271 82.1395 41.165V41.6777H76.8826V41.7598C76.9305 43.0654 77.6893 43.8926 78.865 43.8926C79.7537 43.8926 80.3621 43.5713 80.6355 42.9902ZM83.4322 39.6611C83.4322 38.3418 84.6422 37.4121 86.3238 37.4121C87.9986 37.4121 89.0924 38.1914 89.2359 39.5039H87.8277C87.691 38.957 87.1578 38.6084 86.3238 38.6084C85.5035 38.6084 84.8814 38.998 84.8814 39.5791C84.8814 40.0234 85.2574 40.3037 86.0641 40.4883L87.3014 40.7754C88.7164 41.1035 89.3795 41.7119 89.3795 42.8057C89.3795 44.207 88.0738 45.1436 86.2965 45.1436C84.526 45.1436 83.3707 44.3438 83.2408 43.0244H84.7105C84.8951 43.5986 85.442 43.9541 86.3307 43.9541C87.2467 43.9541 87.8961 43.5439 87.8961 42.9492C87.8961 42.5049 87.5475 42.2178 86.8023 42.04L85.5035 41.7393C84.0885 41.4043 83.4322 40.7686 83.4322 39.6611Z" fill="white"/>
<defs>
<clipPath id="clip0_6_275">
<rect width="24" height="24" fill="white" transform="translate(50)"/>
</clipPath>
<clipPath id="clip1_6_275">
<rect width="24" height="24" fill="white" transform="translate(50)"/>
</clipPath>
</defs>
</svg>
