<svg width="125" height="49" viewBox="0 0 125 49" fill="none" xmlns="http://www.w3.org/2000/svg">
<path d="M66 6H69C69.2652 6 69.5196 6.10536 69.7071 6.29289C69.8946 6.48043 70 6.73478 70 7V18C70 18.5304 69.7893 19.0391 69.4142 19.4142C69.0391 19.7893 68.5304 20 68 20M68 20C67.4696 20 66.9609 19.7893 66.5858 19.4142C66.2107 19.0391 66 18.5304 66 18V5C66 4.73478 65.8946 4.48043 65.7071 4.29289C65.5196 4.10536 65.2652 4 65 4H55C54.7348 4 54.4804 4.10536 54.2929 4.29289C54.1054 4.48043 54 4.73478 54 5V17C54 17.7956 54.3161 18.5587 54.8787 19.1213C55.4413 19.6839 56.2044 20 57 20H68ZM58 8H62M58 12H62M58 16H62" stroke="white" stroke-width="1.5" stroke-linecap="round" stroke-linejoin="round"/>
<path d="M46.7275 45H45.2373V35.1357H46.6182L51.6836 42.1426H51.793V35.1357H53.2832V45H51.9023L46.8369 37.9932H46.7275V45ZM58.3494 38.6631C57.2625 38.6631 56.5037 39.4287 56.4217 40.5908H60.1814C60.1473 39.4219 59.4363 38.6631 58.3494 38.6631ZM60.1746 42.9902H61.5896C61.2547 44.3232 60.0652 45.1436 58.3631 45.1436C56.2303 45.1436 54.9246 43.6807 54.9246 41.3018C54.9246 38.9229 56.2576 37.4121 58.3562 37.4121C60.4275 37.4121 61.6785 38.8271 61.6785 41.165V41.6777H56.4217V41.7598C56.4695 43.0654 57.2283 43.8926 58.4041 43.8926C59.2928 43.8926 59.9012 43.5713 60.1746 42.9902ZM72.7809 37.5557L70.7369 45H69.2125L67.6744 39.5176H67.5582L66.027 45H64.5162L62.4654 37.5557H63.9557L65.2887 43.2363H65.398L66.9293 37.5557H68.3375L69.8687 43.2363H69.985L71.3111 37.5557H72.7809ZM73.6225 39.6611C73.6225 38.3418 74.8324 37.4121 76.5141 37.4121C78.1889 37.4121 79.2826 38.1914 79.4262 39.5039H78.018C77.8813 38.957 77.348 38.6084 76.5141 38.6084C75.6938 38.6084 75.0717 38.998 75.0717 39.5791C75.0717 40.0234 75.4477 40.3037 76.2543 40.4883L77.4916 40.7754C78.9066 41.1035 79.5697 41.7119 79.5697 42.8057C79.5697 44.207 78.2641 45.1436 76.4867 45.1436C74.7162 45.1436 73.5609 44.3438 73.4311 43.0244H74.9008C75.0854 43.5986 75.6322 43.9541 76.5209 43.9541C77.4369 43.9541 78.0863 43.5439 78.0863 42.9492C78.0863 42.5049 77.7377 42.2178 76.9926 42.04L75.6938 41.7393C74.2787 41.4043 73.6225 40.7686 73.6225 39.6611Z" fill="white"/>
</svg>
